<svg xmlns="http://www.w3.org/2000/svg" viewBox="0 0 18 18" width="18" height="18">
  <path fill="#000" fill-rule="evenodd" d="M9.353 4.596 L9.312 4.574 L9.270 4.554 L9.227 4.538 L9.183 4.524 L9.138 4.514 L9.092 4.506 L9.046 4.502 L9.000 4.500 L8.954 4.502 L8.908 4.506 L8.862 4.514 L8.817 4.524 L8.773 4.538 L8.730 4.554 L8.688 4.574 L8.647 4.596 L8.608 4.620 L8.570 4.647 L6.770 6.047 L6.735 6.077 L6.702 6.108 L6.671 6.142 L6.642 6.178 L6.615 6.215 L6.592 6.254 L6.570 6.295 L6.552 6.336 L6.536 6.379 L6.523 6.423 L6.513 6.468 L6.505 6.513 L6.501 6.559 L6.500 6.605 L6.502 6.650 L6.507 6.696 L6.514 6.741 L6.525 6.786 L6.539 6.829 L6.555 6.872 L6.574 6.914 L6.596 6.954 L6.621 6.993 L6.647 7.030 L6.677 7.065 L6.708 7.098 L6.742 7.129 L6.778 7.158 L6.815 7.185 L6.854 7.208 L6.895 7.230 L6.936 7.248 L6.979 7.264 L7.023 7.277 L7.068 7.287 L7.113 7.295 L7.159 7.299 L7.205 7.300 L7.250 7.298 L7.296 7.293 L7.341 7.286 L7.386 7.275 L7.429 7.261 L7.472 7.245 L7.514 7.226 L7.554 7.204 L7.593 7.179 L7.630 7.153 L9.000 6.087 L9.286 6.310 L10.284 5.312 L9.430 4.647 L9.392 4.620 Z M3.815 2.285 L3.591 2.387 L3.375 2.502 L3.167 2.632 L2.967 2.775 L2.777 2.931 L2.598 3.098 L2.431 3.277 L2.275 3.467 L2.132 3.667 L2.002 3.875 L1.887 4.091 L1.785 4.315 L1.699 4.545 L1.628 4.779 L1.572 5.018 L1.532 5.261 L1.508 5.505 L1.500 5.750 L1.500 12.250 L1.508 12.495 L1.532 12.739 L1.572 12.982 L1.628 13.221 L1.699 13.455 L1.785 13.685 L1.825 13.771 L3.024 12.572 L3.019 12.544 L3.005 12.397 L3.000 12.250 L3.000 5.750 L3.005 5.603 L3.019 5.456 L3.043 5.311 L3.077 5.168 L3.119 5.027 L3.171 4.889 L3.232 4.755 L3.301 4.625 L3.379 4.500 L3.465 4.380 L3.558 4.266 L3.659 4.159 L3.766 4.058 L3.880 3.965 L4.000 3.879 L4.125 3.801 L4.255 3.732 L4.389 3.671 L4.527 3.619 L4.668 3.577 L4.811 3.543 L4.956 3.519 L5.103 3.505 L5.250 3.500 L12.096 3.500 L13.516 2.080 L13.482 2.072 L13.239 2.032 L12.995 2.008 L12.750 2.000 L5.250 2.000 L5.005 2.008 L4.761 2.032 L4.518 2.072 L4.279 2.128 L4.045 2.199 Z M6.912 7.723 L6.880 7.690 L6.845 7.660 L6.809 7.632 L6.771 7.606 L6.731 7.583 L6.690 7.563 L6.648 7.545 L6.605 7.531 L6.560 7.519 L6.515 7.510 L6.470 7.504 L6.424 7.500 L6.379 7.500 L6.333 7.503 L6.287 7.509 L6.242 7.518 L6.198 7.530 L6.155 7.544 L6.112 7.562 L6.071 7.582 L6.032 7.605 L5.993 7.630 L5.957 7.658 L5.923 7.688 L5.890 7.720 L5.860 7.755 L5.832 7.791 L5.806 7.829 L5.783 7.869 L5.763 7.910 L5.745 7.952 L5.731 7.995 L5.719 8.040 L5.710 8.085 L5.704 8.130 L5.700 8.176 L5.700 8.221 L5.703 8.267 L5.709 8.313 L5.718 8.358 L5.730 8.402 L5.744 8.445 L5.762 8.488 L5.782 8.529 L5.805 8.568 L6.272 9.324 L7.289 8.307 L6.995 7.832 L6.970 7.793 L6.942 7.757 Z M16.555 2.426 L16.582 2.389 L16.606 2.350 L16.628 2.310 L16.647 2.268 L16.663 2.225 L16.676 2.181 L16.687 2.137 L16.694 2.091 L16.699 2.046 L16.700 2.000 L16.699 1.954 L16.694 1.909 L16.687 1.863 L16.676 1.819 L16.663 1.775 L16.647 1.732 L16.628 1.690 L16.606 1.650 L16.582 1.611 L16.555 1.574 L16.526 1.538 L16.495 1.505 L16.462 1.474 L16.426 1.445 L16.389 1.418 L16.350 1.394 L16.310 1.372 L16.268 1.353 L16.225 1.337 L16.181 1.324 L16.137 1.313 L16.091 1.306 L16.046 1.301 L16.000 1.300 L15.954 1.301 L15.909 1.306 L15.863 1.313 L15.819 1.324 L15.775 1.337 L15.732 1.353 L15.690 1.372 L15.650 1.394 L15.611 1.418 L15.574 1.445 L15.538 1.474 L15.505 1.505 L1.505 15.505 L1.474 15.538 L1.445 15.574 L1.418 15.611 L1.394 15.650 L1.372 15.690 L1.353 15.732 L1.337 15.775 L1.324 15.819 L1.313 15.863 L1.306 15.909 L1.301 15.954 L1.300 16.000 L1.301 16.046 L1.306 16.091 L1.313 16.137 L1.324 16.181 L1.337 16.225 L1.353 16.268 L1.372 16.310 L1.394 16.350 L1.418 16.389 L1.445 16.426 L1.474 16.462 L1.505 16.495 L1.538 16.526 L1.574 16.555 L1.611 16.582 L1.650 16.606 L1.690 16.628 L1.732 16.647 L1.775 16.663 L1.819 16.676 L1.863 16.687 L1.909 16.694 L1.954 16.699 L2.000 16.700 L2.046 16.699 L2.091 16.694 L2.137 16.687 L2.181 16.676 L2.225 16.663 L2.268 16.647 L2.310 16.628 L2.350 16.606 L2.389 16.582 L2.426 16.555 L2.462 16.526 L2.495 16.495 L16.495 2.495 L16.526 2.462 Z M5.250 16.000 L12.750 16.000 L12.995 15.992 L13.239 15.968 L13.482 15.928 L13.721 15.872 L13.955 15.801 L14.185 15.715 L14.409 15.613 L14.625 15.498 L14.833 15.368 L15.033 15.225 L15.223 15.069 L15.402 14.902 L15.569 14.723 L15.725 14.533 L15.868 14.333 L15.998 14.125 L16.113 13.909 L16.215 13.685 L16.301 13.455 L16.372 13.221 L16.428 12.982 L16.468 12.739 L16.492 12.495 L16.500 12.250 L16.500 5.750 L16.492 5.505 L16.468 5.261 L16.428 5.018 L16.372 4.779 L16.301 4.545 L16.215 4.315 L16.175 4.229 L14.976 5.428 L14.981 5.456 L14.995 5.603 L15.000 5.750 L15.000 12.250 L14.995 12.397 L14.981 12.544 L14.957 12.689 L14.923 12.832 L14.881 12.973 L14.829 13.111 L14.768 13.245 L14.699 13.375 L14.621 13.500 L14.535 13.620 L14.442 13.734 L14.341 13.841 L14.234 13.942 L14.120 14.035 L14.000 14.121 L13.875 14.199 L13.745 14.268 L13.611 14.329 L13.473 14.381 L13.332 14.423 L13.189 14.457 L13.044 14.481 L12.897 14.495 L12.750 14.500 L5.904 14.500 L4.484 15.920 L4.518 15.928 L4.761 15.968 L5.005 15.992 Z M8.630 12.994 L8.669 13.017 L8.711 13.037 L8.753 13.055 L8.796 13.070 L8.841 13.082 L8.886 13.091 L8.931 13.097 L8.977 13.100 L9.023 13.100 L9.069 13.097 L9.114 13.091 L9.159 13.082 L9.204 13.070 L9.247 13.055 L9.289 13.037 L9.331 13.017 L9.370 12.994 L9.408 12.968 L9.445 12.941 L9.479 12.910 L9.512 12.878 L9.542 12.843 L9.570 12.807 L9.595 12.768 L12.195 8.568 L12.218 8.529 L12.238 8.488 L12.256 8.445 L12.270 8.402 L12.282 8.358 L12.291 8.313 L12.297 8.267 L12.300 8.221 L12.300 8.176 L12.296 8.130 L12.294 8.110 L8.111 12.293 L8.405 12.768 L8.430 12.807 L8.458 12.843 L8.488 12.878 L8.521 12.910 L8.555 12.941 L8.592 12.968 Z"/>
</svg>
